<?xml version="1.0" encoding="utf-8"?>
<svg version="1.1" xmlns="http://www.w3.org/2000/svg" xmlns:xlink="http://www.w3.org/1999/xlink" x="0px" y="0px" viewBox="0 0 186.9 45" style="enable-background:new 0 0 186.9 45;" xml:space="preserve">
    <style type="text/css">
        .st0 {
            fill: #FFC700;
        }
        .st1 {
            fill: #FFFFFF;
        }
    </style>
    <g>
        <path class="st0" d="M8.7,20H7.1l-1.7,8.7h-5L4.7,6.8h5l-1.7,8.7h1.5l5-8.7h6.6l-7.9,10.8l3.8,11.1h-5.8L8.7,20z"/>
        <path
            class="st0"
            d="M25,20.3l-1.7,8.4h-5l4.4-21.9h7.9c2.2,0,3.9,0.6,5.2,1.8c1.2,1.2,1.6,2.8,1.3,4.8c-0.3,1.2-0.7,2.2-1.4,3
    c-0.7,0.8-1.7,1.4-2.9,1.9c1.1,0.4,1.9,1.1,2.3,2s0.5,2,0.2,3.2L35,24.9c-0.1,0.6-0.2,1.2-0.2,2c0,0.7,0.2,1.2,0.5,1.5l-0.1,0.3
    h-5.2c-0.3-0.3-0.4-0.8-0.4-1.6s0.1-1.5,0.3-2.2l0.3-1.3c0.2-1.1,0.2-1.9-0.2-2.4c-0.4-0.5-1-0.8-2-0.8H25z M25.8,16.4h2.9
    c0.8,0,1.5-0.2,2.1-0.7c0.6-0.5,1-1.1,1.1-2c0.2-1,0.1-1.7-0.3-2.2c-0.4-0.5-1-0.8-1.9-0.8h-2.9L25.8,16.4z"/>
        <path class="st0" d="M42.6,28.7h-5L42,6.8h5L42.6,28.7z"/>
        <path class="st0" d="M57.1,6.8l1.2,15.3l0.1,0l7.4-15.3h6.6L68,28.7h-5l1.1-5.4l2.3-9.4l-0.1,0l-7.6,14.8h-3.4L53.7,14h-0.1
    l-1.4,9.3l-1.1,5.4h-5l4.4-21.9H57.1z"/>
        <path class="st0" d="M76.5,28.7h-5l4.4-21.9h5L76.5,28.7z"/>
        <path class="st0" d="M95.9,20H80.7l1-4h15.1L95.9,20z"/>
        <path
            class="st0"
            d="M103.9,21.2l-1.5,7.5h-5l4.4-21.9h8.4c2.3,0,4,0.7,5.3,2c1.2,1.3,1.7,3.1,1.2,5.2c-0.5,2.3-1.5,4.1-3.2,5.3
    c-1.7,1.3-3.7,1.9-6.2,1.9H103.9z M104.7,17.3h3.4c0.9,0,1.7-0.3,2.3-0.9c0.7-0.6,1.1-1.4,1.3-2.3c0.2-1,0.1-1.8-0.3-2.4
    c-0.4-0.6-1-0.9-2-0.9H106L104.7,17.3z"/>
        <path class="st0" d="M121.6,24.8h8.6l-0.8,3.9h-13.7l4.4-21.9h5L121.6,24.8z"/>
        <path class="st0" d="M137.8,24.8h8.7l-0.8,3.9h-14.3l-0.2-2.3l10.8-15.7h-7.3l0.8-3.9h13.7L148.6,9L137.8,24.8z"/>
        <path class="st0" d="M162.6,19.3h-7.8l-1.1,5.5h9.2l-0.8,3.9h-14.3l4.4-21.9h14.3l-0.8,3.9h-9.3l-0.9,4.7h7.8L162.6,19.3z"/>
        <path class="st0" d="M181.5,28.7h-5l-4.3-13.4l-0.1,0l-2.7,13.4h-5l4.4-21.9h5l4.3,13.4l0.1,0l2.7-13.4h5L181.5,28.7z M178.2,2.2
    l1.7-1.7h4.6l-0.1,0.2l-4.9,3.9H176l-3.4-3.9l0-0.2h4.6L178.2,2.2z"/>
    </g>
    <g>
        <path class="st1" d="M3.4,41.8l0.1,0.6h0l0.1-0.5l1.9-5.9h1.4l-2.9,8H2.9l-2.9-8h1.4L3.4,41.8z"/>
        <path
            class="st1"
            d="M12.3,41.9c0-0.3-0.1-0.6-0.4-0.8c-0.2-0.2-0.7-0.4-1.3-0.6c-0.9-0.2-1.6-0.5-2.1-0.9
    c-0.5-0.4-0.7-0.9-0.7-1.5c0-0.6,0.3-1.2,0.8-1.6c0.5-0.4,1.2-0.6,2.1-0.6c0.9,0,1.6,0.2,2.1,0.7c0.5,0.5,0.8,1,0.8,1.7l0,0h-1.3
    c0-0.4-0.1-0.7-0.4-1c-0.3-0.3-0.7-0.4-1.2-0.4c-0.5,0-0.9,0.1-1.1,0.3c-0.3,0.2-0.4,0.5-0.4,0.8c0,0.3,0.1,0.6,0.4,0.8
    c0.3,0.2,0.8,0.4,1.4,0.6c0.9,0.2,1.5,0.6,2,1c0.4,0.4,0.7,0.9,0.7,1.6c0,0.7-0.3,1.2-0.8,1.6c-0.5,0.4-1.2,0.6-2.1,0.6
    c-0.8,0-1.6-0.2-2.2-0.7s-0.9-1.1-0.9-1.8l0,0h1.3c0,0.5,0.2,0.9,0.5,1.1c0.3,0.2,0.8,0.4,1.3,0.4c0.5,0,0.9-0.1,1.2-0.3
    S12.3,42.2,12.3,41.9z M10.6,34.3l0.7-0.8h1.2v0.1L11,35h-0.9l-1.5-1.4v-0.1h1.2L10.6,34.3z"/>
        <path class="st1" d="M19.9,40.3h-3.5v2.5h4.1v1.1h-5.4v-8h5.4V37h-4v2.3h3.5V40.3z"/>
        <path
            class="st1"
            d="M30.7,40.6c0,1-0.3,1.8-0.9,2.4s-1.4,1-2.4,1c-1,0-1.7-0.3-2.3-1s-0.9-1.5-0.9-2.4v-1.4c0-1,0.3-1.8,0.9-2.4
    s1.4-1,2.3-1c1,0,1.8,0.3,2.4,1s0.9,1.5,0.9,2.4V40.6z M29.3,39.2c0-0.7-0.2-1.2-0.5-1.7s-0.8-0.6-1.5-0.6c-0.6,0-1.1,0.2-1.4,0.6
    s-0.5,1-0.5,1.7v1.5c0,0.7,0.2,1.2,0.5,1.7s0.8,0.6,1.4,0.6c0.6,0,1.1-0.2,1.5-0.6s0.5-1,0.5-1.7V39.2z"/>
        <path class="st1" d="M37.2,40.5h-0.9v3.5h-1.3v-8h1.3v3.4h0.8l2.5-3.4h1.6l-2.9,3.8l3.2,4.2h-1.6L37.2,40.5z"/>
        <path
            class="st1"
            d="M43.8,40.6v3.3h-1.3v-8h3c0.9,0,1.6,0.2,2.1,0.6c0.5,0.4,0.7,1,0.7,1.7c0,0.4-0.1,0.8-0.3,1.1
    s-0.5,0.5-0.9,0.7c0.5,0.1,0.8,0.4,1,0.7c0.2,0.3,0.3,0.7,0.3,1.2v0.7c0,0.2,0,0.5,0.1,0.7c0.1,0.2,0.2,0.4,0.3,0.5v0.1h-1.4
    c-0.1-0.1-0.2-0.3-0.3-0.6c0-0.3-0.1-0.5-0.1-0.8V42c0-0.4-0.1-0.7-0.4-1c-0.2-0.2-0.6-0.4-1-0.4H43.8z M43.8,39.5h1.6
    c0.5,0,0.9-0.1,1.2-0.3s0.4-0.5,0.4-0.9c0-0.4-0.1-0.7-0.4-1c-0.2-0.2-0.6-0.3-1.1-0.3h-1.6V39.5z"/>
        <path class="st1" d="M51.2,43.9h-1.3v-8h1.3V43.9z"/>
        <path class="st1" d="M54.7,35.9l2.3,6.2h0l2.3-6.2h1.7v8h-1.3v-2.7l0.1-3.5l0,0l-2.4,6.2h-0.9l-2.4-6.2l0,0l0.1,3.5v2.7H53v-8H54.7
    z"/>
        <path class="st1" d="M64.2,43.9h-1.3v-8h1.3V43.9z"/>
        <path class="st1" d="M72.3,43.9h-1.3l-3.6-5.9l0,0v5.9H66v-8h1.3l3.6,5.9l0,0v-5.9h1.3V43.9z"/>
        <path class="st1" d="M78.5,42.1h-3.1l-0.6,1.9h-1.4l3-8h1.3l2.9,8h-1.4L78.5,42.1z M75.7,40.9h2.4L77,37.5h0L75.7,40.9z"/>
        <path class="st1" d="M82.9,42.9h3.7v1.1h-5v-8h1.3V42.9z"/>
        <path class="st1" d="M89.1,43.9h-1.3v-8h1.3V43.9z"/>
        <path class="st1" d="M96.5,37h-2.4v7h-1.3v-7h-2.4v-1.1h6.2V37z"/>
        <path class="st1" d="M102.5,40.3H99v2.5h4.1v1.1h-5.4v-8h5.4V37h-4v2.3h3.5V40.3z M100.2,34.4l0.7-0.8h1.2v0.1l-1.5,1.4h-0.9
    l-1.5-1.4v-0.1h1.2L100.2,34.4z"/>
        <path class="st1" d="M113.3,43.9H112l-3.6-5.9l0,0v5.9H107v-8h1.3l3.6,5.9l0,0v-5.9h1.3V43.9z"/>
        <path class="st1" d="M119.5,42.1h-3.1l-0.6,1.9h-1.4l3-8h1.3l2.9,8h-1.4L119.5,42.1z M116.8,40.9h2.4l-1.2-3.4h0L116.8,40.9z"/>
        <path
            class="st1"
            d="M126.6,40.9v3h-1.3v-8h3.1c0.9,0,1.6,0.2,2.1,0.7s0.8,1.1,0.8,1.8c0,0.8-0.3,1.4-0.8,1.8
    c-0.5,0.5-1.2,0.7-2.1,0.7H126.6z M126.6,39.8h1.8c0.5,0,0.9-0.1,1.1-0.4c0.3-0.3,0.4-0.6,0.4-1s-0.1-0.7-0.4-1
    c-0.3-0.3-0.6-0.4-1.1-0.4h-1.8V39.8z"/>
        <path class="st1" d="M133.9,42.9h3.7v1.1h-5v-8h1.3V42.9z"/>
        <path class="st1" d="M140.1,42.9h4.2v1.1h-5.8v-0.8l4-6.1h-4v-1.1h5.6v0.8L140.1,42.9z"/>
        <path class="st1" d="M150.4,40.3h-3.5v2.5h4.1v1.1h-5.4v-8h5.4V37h-4v2.3h3.5V40.3z"/>
        <path class="st1" d="M158.4,43.9h-1.3l-3.6-5.9l0,0v5.9h-1.3v-8h1.3l3.6,5.9l0,0v-5.9h1.3V43.9z M155.3,34.4l0.7-0.8h1.2v0.1
    l-1.5,1.4h-0.9l-1.5-1.4v-0.1h1.2L155.3,34.4z"/>
        <path
            class="st1"
            d="M164.5,41.9c0-0.3-0.1-0.6-0.4-0.8c-0.2-0.2-0.7-0.4-1.3-0.6c-0.9-0.2-1.6-0.5-2.1-0.9
    c-0.5-0.4-0.7-0.9-0.7-1.5c0-0.6,0.3-1.2,0.8-1.6c0.5-0.4,1.2-0.6,2.1-0.6c0.9,0,1.6,0.2,2.1,0.7c0.5,0.5,0.8,1,0.8,1.7l0,0h-1.3
    c0-0.4-0.1-0.7-0.4-1c-0.3-0.3-0.7-0.4-1.2-0.4c-0.5,0-0.9,0.1-1.1,0.3c-0.3,0.2-0.4,0.5-0.4,0.8c0,0.3,0.1,0.6,0.4,0.8
    s0.8,0.4,1.4,0.6c0.9,0.2,1.5,0.6,2,1c0.4,0.4,0.7,0.9,0.7,1.6c0,0.7-0.3,1.2-0.8,1.6s-1.2,0.6-2.1,0.6c-0.8,0-1.6-0.2-2.2-0.7
    s-0.9-1.1-0.9-1.8l0,0h1.3c0,0.5,0.2,0.9,0.5,1.1c0.3,0.2,0.8,0.4,1.3,0.4c0.5,0,0.9-0.1,1.2-0.3C164.3,42.5,164.5,42.2,164.5,41.9
    z"/>
        <path class="st1" d="M169.5,40.5h-0.9v3.5h-1.3v-8h1.3v3.4h0.8l2.5-3.4h1.6l-2.9,3.8l3.2,4.2H172L169.5,40.5z"/>
        <path class="st1" d="M180.7,35.9v5.4c0,0.9-0.3,1.6-0.9,2.1c-0.6,0.5-1.3,0.7-2.3,0.7c-0.9,0-1.7-0.2-2.2-0.7s-0.9-1.2-0.9-2v-5.4
    h1.3v5.4c0,0.6,0.2,1,0.5,1.3s0.7,0.4,1.3,0.4c0.6,0,1-0.1,1.3-0.4s0.5-0.7,0.5-1.3v-5.4H180.7z"/>
    </g>
</svg>
