<?xml version="1.0" encoding="utf-8"?>
<svg version="1.1" xmlns="http://www.w3.org/2000/svg" xmlns:xlink="http://www.w3.org/1999/xlink" x="0px" y="0px" viewBox="0 0 177.4 28" xml:space="preserve">
    <symbol id="krimi-logo">
        <g class="krimi">
            <path class="st0" d="M7,17.9H5L3,28H0L4.5,5.6h3l-2,9.8h2.2l8.2-9.8h3.7l0,0.1L9.6,16.8L15.5,28h-3.4L7,17.9z"/>
            <path
                class="st0"
                d="M23.1,18.3L21.2,28h-3l4.5-22.4h7.6c2.1,0,3.7,0.6,4.8,1.7s1.4,2.7,1,4.7c-0.3,1.2-0.7,2.3-1.5,3.1
    c-0.7,0.8-1.7,1.5-2.9,2c1,0.4,1.7,1.1,2,2s0.4,2,0.2,3.3l-0.4,2.1c-0.2,0.7-0.2,1.4-0.2,1.9c0,0.5,0.2,1,0.5,1.3L33.7,28h-3.1
    c-0.3-0.3-0.4-0.9-0.4-1.5c0-0.7,0.1-1.4,0.3-2.1l0.4-2c0.3-1.3,0.1-2.3-0.3-3c-0.5-0.7-1.3-1.1-2.3-1.1H23.1z M23.6,15.9h4.3
    c1.4,0,2.6-0.3,3.5-1s1.4-1.7,1.7-2.9c0.3-1.3,0.1-2.3-0.4-3c-0.5-0.7-1.5-1-2.9-1h-4.6L23.6,15.9z"/>
            <path class="st0" d="M39.6,28h-3l4.5-22.4h3L39.6,28z"/>
            <path class="st0" d="M52.1,5.6l2.9,18.2l0.1,0L65.2,5.6h3.8L64.5,28h-3l1.8-8.9l2.1-8.8l-0.1,0L55.1,28h-2l-3.1-17.7H50l-1.5,8.8
    L46.7,28h-3l4.5-22.4H52.1z"/>
            <path class="st0" d="M71.6,28h-3l4.5-22.4h3L71.6,28z"/>
        </g>
        <g class="plzen">
            <path
                class="st0"
                d="M90.2,20.3L88.6,28h-5.2l4.5-22.4h8.6c2.3,0,4.1,0.7,5.4,2.1s1.7,3.2,1.3,5.3c-0.5,2.3-1.6,4.2-3.3,5.4
    c-1.7,1.3-3.8,1.9-6.4,1.9H90.2z M91,16.3h3.5c0.9,0,1.7-0.3,2.4-0.9c0.7-0.6,1.1-1.4,1.3-2.4c0.2-1,0.1-1.9-0.3-2.5
    s-1.1-0.9-2.1-0.9h-3.5L91,16.3z"/>
            <path class="st0" d="M109,24h8.9l-0.8,4h-14l4.5-22.4h5.2L109,24z"/>
            <path class="st0" d="M126.8,24h8.9l-0.8,4h-14.7l-0.2-2.3l11.1-16.1h-7.5l0.8-4h14l-0.4,2.2L126.8,24z"/>
            <path class="st0" d="M152.9,18.4h-8l-1.1,5.6h9.5l-0.8,4h-14.6l4.5-22.4H157l-0.8,4h-9.5l-1,4.8h8L152.9,18.4z"/>
            <path class="st0" d="M172.9,28h-5.1l-4.4-13.8l-0.1,0L160.5,28h-5.2l4.5-22.4h5.2l4.4,13.8l0.1,0l2.8-13.8h5.1L172.9,28z
     M169.4,1.7L171,0h4.4l-0.1,0.2L170.6,4h-3.3L164,0.2l0-0.2h4.4L169.4,1.7z"/>
        </g>
    </symbol>
</svg>
