<svg xmlns="http://www.w3.org/2000/svg" width="24" height="24" viewBox="0 0 381.051 381.051"><path d="M366.928 56.035H14.124C6.324 56.035 0 62.358 0 70.158V310.89c0 7.8 6.324 14.125 14.124 14.125h352.804c7.8 0 14.123-6.325 14.123-14.124V70.16c0-7.8-6.323-14.123-14.122-14.123zM28.248 96.9l95.946 65.466L28.247 273.04V96.9zm162.28 76.528L59.88 84.28h261.29L190.53 173.43zm-42.838 4.967l34.875 23.8c2.407 1.633 5.187 2.453 7.965 2.453 2.78 0 5.56-.82 7.958-2.454l34.88-23.8L336 296.768H45.068L147.69 178.395zm109.173-16.03l95.94-65.464v176.124l-95.94-110.658z" fill="#FFF"/></svg>