<?xml version="1.0" encoding="UTF-8" standalone="no"?>
<!-- Created with Inkscape (http://www.inkscape.org/) -->

<svg
   xmlns:dc="http://purl.org/dc/elements/1.1/"
   xmlns:cc="http://creativecommons.org/ns#"
   xmlns:rdf="http://www.w3.org/1999/02/22-rdf-syntax-ns#"
   xmlns:svg="http://www.w3.org/2000/svg"
   xmlns="http://www.w3.org/2000/svg"
   version="1.1"
   width="26"
   height="26"
   viewBox="0 0 26 26"
   id="Layer_1"
   xml:space="preserve"><metadata
     id="metadata3111"><rdf:RDF><cc:Work
         rdf:about=""><dc:format>image/svg+xml</dc:format><dc:type
           rdf:resource="http://purl.org/dc/dcmitype/StillImage" /><dc:title></dc:title></cc:Work></rdf:RDF></metadata><defs
     id="defs3109"><clipPath
       id="clipPath28"><path
         d="m 0,141.732 155.906,0 L 155.906,0 0,0 0,141.732 z"
         id="path30" /></clipPath></defs><path
     d="M 8.2348045,25.618378 C 3.1400776,22.747024 1.798741,20.029218 2.5656274,16.317284 3.1317686,13.576359 4.9855727,11.346384 5.1633257,8.6107074 5.9552152,10.051804 6.2860976,11.090953 6.3745884,12.596865 8.8932053,9.5110698 10.557558,5.2392553 10.656103,0.7519874 c 0,0 6.560067,3.8545026 6.990532,9.6767586 C 18.211372,9.2286758 18.495638,7.3226903 17.930901,6.0873985 19.625074,7.322741 29.54129,18.289312 16.58773,25.618378 19.023142,20.8764 17.216031,14.477999 12.98752,11.522923 c 0.282406,1.270653 -0.21271,6.009797 -2.083435,8.092233 0.518335,-3.479546 -0.493194,-4.950867 -0.493194,-4.950867 0,0 -0.347159,1.948998 -1.694174,3.917825 -1.2300435,1.79788 -2.0823348,3.706066 -0.4819125,7.036264 z"
     id="path4" /></svg>