<?xml version="1.0" encoding="UTF-8"?>
<!DOCTYPE svg PUBLIC "-//W3C//DTD SVG 1.1//EN" "http://www.w3.org/Graphics/SVG/1.1/DTD/svg11.dtd">
<!-- Creator: CorelDRAW -->
<svg xmlns="http://www.w3.org/2000/svg" xml:space="preserve" width="8in" height="8in" style="shape-rendering:geometricPrecision; text-rendering:geometricPrecision; image-rendering:optimizeQuality; fill-rule:evenodd; clip-rule:evenodd"
viewBox="0 0 8000 8000"
 xmlns:xlink="http://www.w3.org/1999/xlink">
 <defs>
  <style type="text/css">
   <![CDATA[
    .str0 {stroke:black}
    .fil0 {fill:black}
   ]]>
  </style>
 </defs>
 <g id="Layer_x0020_1">
  <metadata id="CorelCorpID_0Corel-Layer"/>
  <path class="fil0 str0" d="M6521 82c-88,8 -176,100 -236,156 -428,395 -444,306 -698,518 -176,148 -246,148 -489,354 -255,217 -221,223 -577,391 -191,92 -368,175 -538,299 -20,15 -293,213 -321,220 -38,8 -98,-58 -123,-76 -273,-199 -475,-294 -739,-543 -192,-183 -299,-321 -522,-488 -55,-42 -502,-373 -551,-395 -137,-62 -261,46 -379,102 -166,80 -254,92 -408,216 -109,90 -202,185 -293,295 -245,293 -339,183 -605,420 -183,163 -413,266 -563,466 -140,185 -248,141 -399,255 -184,142 -352,337 -568,430 -164,68 -324,143 -491,204 -252,92 -354,378 -531,555 -22,23 -114,167 -150,114 -52,-80 -100,-70 -102,-141 -2,-73 148,2 142,-69 -6,-74 -119,-92 -132,-198 -12,-109 -85,-33 -60,-193 32,-212 -71,-239 -73,-19 -1,248 -157,289 -152,387 4,57 122,-22 63,62 -58,84 39,45 55,60 25,23 -11,132 -24,153 -52,86 -131,120 -182,224 -43,86 -176,146 -163,225 21,133 197,-94 212,18 7,57 -46,199 85,105 15,-11 50,-37 51,0 12,352 -77,330 -168,405 -49,42 -205,196 -253,246 -61,64 -115,188 12,101 112,-77 -8,166 -16,179 -6,12 -163,247 -29,191 61,-26 153,-129 45,87 -168,335 92,60 320,-91 83,-57 44,65 46,120 3,69 29,400 -14,453 -38,49 -289,66 -216,165 67,90 -133,104 -154,219 -8,41 46,37 18,98 -53,118 166,3 190,-8 76,-35 -68,139 -2,185 41,28 294,-48 366,-42 65,4 96,161 118,213 26,58 94,256 33,310 -32,29 -132,19 -171,23 -74,8 -335,40 -367,124 -23,60 -93,71 -49,117 49,52 278,36 259,110 -26,107 -287,234 -238,326 25,48 176,24 239,29 57,4 105,7 160,-5 123,-26 58,94 140,115 150,36 312,-8 463,-4 194,6 344,9 536,48 309,63 336,-86 603,-58 203,21 178,-133 335,-125 220,12 231,-92 551,-33 330,59 643,56 977,60 124,2 471,63 529,-104 48,-138 -212,-143 -168,-211 55,-87 506,-27 602,-23 75,3 350,9 412,-1 60,-8 184,-23 216,-85 41,-82 -87,-111 -131,-134 -97,-52 6,-93 -240,-109 -65,-4 -339,-11 -373,-80 -22,-46 86,-68 115,-70 104,-8 275,4 385,4 189,1 373,-28 562,-30 437,-9 644,-52 1060,-94 323,-35 645,-54 965,-125 219,-50 443,-86 660,-147 23,-7 215,-54 231,-41 22,18 -149,97 -165,103 -127,48 -455,143 -535,243 -69,86 16,142 95,149 146,14 514,-42 676,-57 285,-27 569,-39 852,-86 307,-51 615,-89 923,-126 133,-17 447,-50 526,-171 94,-144 -336,-107 -229,-188 119,-90 297,-108 437,-137 337,-73 683,-98 1026,-133 67,-7 377,-44 357,-168 -13,-80 -347,-169 261,-195 138,-5 243,-29 413,-32 118,-3 223,-1 345,-12 78,-7 263,-52 206,-167 -35,-72 -90,-68 128,-190 63,-35 220,-132 214,-216 -15,-195 -25,-199 20,-408 33,-150 290,-376 279,-469 -12,-91 -119,-165 -168,-233 -94,-127 -261,-291 -324,-388 -73,-113 -197,-198 -262,-306 -114,-189 -489,-415 -672,-560 -322,-257 -618,-548 -924,-825 -204,-185 -378,-284 -610,-421l-109 -74c-170,-97 -364,-174 -502,-314 -220,-225 -286,-283 -562,-478 -206,-146 -248,-208 -415,-356 -98,-87 -240,-212 -379,-200zm-27 117c-160,33 -357,325 -654,493 -521,296 -930,793 -1480,1021 -229,95 -388,202 -570,363 -62,56 73,114 116,147 94,68 80,-13 316,-175 298,-202 493,-236 711,-366 27,-17 173,-123 210,-74 66,87 -319,278 -366,298 -307,135 -407,244 -638,458 -42,39 21,80 91,152 41,43 353,358 402,365 47,7 268,-260 333,-195 80,79 -202,245 -185,302 6,25 401,291 450,328 109,82 186,71 301,116 70,27 137,45 202,81 92,48 -3,-103 86,-152 98,-55 246,117 177,-79 -77,-218 45,-169 111,-401 47,-164 159,-152 266,-341 80,-140 175,-268 262,-403 70,-111 4,-167 -67,-82 -86,102 -250,536 -349,502 -54,-18 -53,-31 -84,46 -40,99 -104,61 -118,-23 -12,-71 -99,42 -182,80 -123,54 -155,-49 -91,-129 42,-53 210,-220 199,-287 -8,-43 -113,79 -126,-2 -6,-41 36,-80 53,-111 37,-73 104,-268 206,-274 85,-5 85,182 34,274 -106,192 -40,217 98,-39 54,-100 22,-238 101,-386 57,-109 230,-174 204,-322 -11,-63 -145,78 -157,92 -71,77 -81,-36 -286,116 -43,32 -104,92 -165,82 -100,-16 29,-175 57,-204 199,-207 390,-227 404,-379 7,-91 -20,-143 111,-128 76,8 109,-40 60,-99 -101,-122 139,-170 71,-298 -16,-30 -67,23 -77,32 -119,123 -22,276 -423,346 -143,26 -18,104 -74,189 -73,110 -218,56 -376,196 -29,26 -149,169 -197,90 -63,-106 287,-284 350,-380 64,-95 24,-149 184,-159 113,-6 272,1 343,-137 71,-141 41,-223 188,-321 133,-89 44,-239 -32,-223zm-4889 409c-70,14 -135,67 -198,99 -144,71 -220,89 -355,200 -285,236 -295,396 -664,552 -127,53 -219,148 -326,229 -124,94 -254,180 -377,275 -180,140 -138,247 -409,342 -196,68 -235,141 -386,259 -128,98 -272,170 -394,276 -178,157 -67,10 -240,93 -173,81 -212,65 -350,220 -48,54 -28,71 43,40 115,-49 61,133 131,165 96,44 229,-104 265,-175 56,-110 49,-103 173,-139 332,-97 717,-464 1010,-667 109,-75 203,-167 309,-246 216,-162 304,-200 502,-414 65,-69 192,-215 269,-272 83,-60 115,23 60,90 -40,49 -146,141 -229,239 -61,75 -117,156 -186,225 -38,39 -65,54 -25,106 61,78 -88,137 -143,165 -280,152 -345,175 -644,375 -197,131 -387,269 -605,358 -119,49 -85,78 -234,150 -174,84 -200,135 -294,296 -168,287 83,161 80,316 -2,152 -52,172 280,-50 142,-95 562,-394 648,-532 52,-84 -2,-238 49,-281 57,-49 223,-187 288,-214 35,-13 108,0 7,116 -147,164 -249,118 -216,239 58,219 322,-107 539,-200 101,-44 75,43 28,88 -53,53 -397,317 -455,352 -81,50 -159,64 -224,141 -108,129 -335,313 -372,383 -78,153 288,35 198,188 -25,41 -188,205 203,-20 229,-132 447,-284 618,-486 136,-161 275,-162 421,-314 118,-123 110,-131 274,-225 62,-36 122,-75 153,-140 58,-118 -222,-61 -163,-180 27,-54 202,-164 255,-183 136,-47 102,48 247,-230 72,-137 -69,-54 -111,-11 -60,61 -384,373 -442,179 -35,-121 263,-171 334,-336 34,-79 -15,-129 -97,-110 -85,19 -132,66 -206,39 -149,-55 239,-312 294,-360 97,-85 103,-215 191,-307 89,-91 236,-123 317,-224 40,-50 -27,-105 25,-151 44,-40 83,28 124,1 66,-45 -14,-154 -2,-209 5,-24 101,-138 12,-120zm-222 951c-104,24 -235,204 -254,285 -24,107 55,118 134,151 62,25 109,-49 125,-100 23,-73 25,-132 47,-197 18,-49 37,-159 -52,-139zm5794 75c-71,15 -46,85 11,125 223,159 350,218 550,428 130,137 -99,89 115,251 199,151 -76,119 135,317 31,28 149,125 126,182 -13,32 -146,-41 -167,-52 -89,-51 -375,-204 -472,-195 -89,10 -106,117 16,147 260,67 543,410 612,418 110,10 224,-229 691,-118 35,9 159,52 164,-17 5,-79 -281,-158 -322,-162 -174,-23 -318,38 -363,-78 -28,-76 -94,-159 27,-140 53,8 219,58 196,-62 -20,-102 -520,-218 -386,-260 124,-41 73,-133 233,-25 62,42 156,38 116,-36 -75,-137 70,-39 92,-115 10,-39 -116,-150 -142,-173 -77,-68 -190,-102 -164,61 21,125 -226,-318 -327,-265 -92,49 116,251 152,370 31,102 -73,11 -112,-33 -102,-116 -636,-600 -781,-568zm-4795 94c-60,27 93,165 146,227 135,153 522,498 597,654 47,96 -99,21 -121,7 -68,-41 -326,-284 -380,-224 -44,53 54,141 79,173 81,97 310,331 346,442 21,65 -66,219 20,240 76,19 120,-126 120,-167 2,-141 -81,-230 30,-203 87,21 138,1 124,-103 -23,-167 -186,-375 -204,-457 -17,-77 305,273 311,279 152,146 638,754 765,826 80,45 89,-31 15,-130 -193,-253 -391,-503 -602,-739 -135,-151 -228,-309 -400,-415 -173,-106 -250,-306 -317,-304 -92,2 7,209 15,252 17,81 -104,-57 -116,-67 -49,-42 -360,-320 -428,-291zm-772 468c-65,16 -209,199 -239,251 -35,63 -46,151 -139,118 -148,-55 -117,226 -249,358 -93,92 -230,96 -326,181 -107,94 -225,193 -307,310 -99,140 -173,94 -277,294 -71,136 -103,123 -215,197 -127,85 -206,138 -348,199 -92,38 -161,91 -5,91 82,0 260,-48 321,24 59,69 -66,106 -39,171 28,65 139,10 211,114 92,136 130,191 220,-28 54,-132 91,-356 188,-457 80,-81 44,101 88,123 73,36 91,-270 345,-461 138,-104 223,-87 69,62 -109,105 -181,238 -226,380 -10,32 -61,139 -23,170 46,36 69,-108 226,-235 240,-194 334,-86 473,-451 26,-69 91,-323 154,-365 86,-60 83,12 135,-220 83,-381 18,-325 46,-616 5,-47 15,-233 -83,-210zm368 204c-93,18 -34,236 -22,290 42,174 205,394 301,562 44,79 54,95 182,63 145,-35 -75,-307 -115,-410 -27,-68 -54,-339 -163,-326 -64,7 -65,43 -98,-65 -11,-34 -33,-124 -85,-114zm-24 788c-28,2 -244,110 -268,132 -51,45 -73,115 -113,168 -314,423 -203,512 -250,581 -39,58 -129,-64 -301,11 -166,72 -214,283 -310,419 -72,101 -21,75 -17,153 5,107 -5,254 153,230 98,-15 84,70 180,107 140,53 225,262 395,232 111,-19 81,-159 192,-9 85,115 142,265 315,171 48,-27 88,-46 140,-63 236,-78 -71,-242 -104,-286 -81,-107 411,-342 481,-651 55,-241 -39,-182 -135,-172 -90,9 101,-208 3,-273 -97,-66 -145,155 -198,86 -30,-38 -50,-70 -83,-106 -119,-130 -77,-153 69,-213 208,-84 49,-285 -42,-435 -23,-39 -54,-86 -107,-82zm7198 198c-42,6 -83,30 -125,40 -161,38 -259,42 -420,111 -117,49 -200,87 -325,108 -82,13 49,94 66,103 94,52 375,163 427,236 49,65 -53,83 -106,70 -92,-23 -170,-54 -262,-79 -377,-106 -329,-1 -680,-110 -325,-100 -471,-44 -767,-95 -127,-22 -305,-261 -319,-175 -12,82 88,152 -12,319 -121,202 19,205 -30,290 -48,84 -183,28 -241,-5 -159,-93 -244,-47 -413,-58 -194,-13 -583,-46 -769,-75 -48,-8 -203,-46 -252,-14 -34,23 154,64 162,67 144,37 220,72 390,110 79,17 184,37 264,65 76,28 88,94 15,122 -130,48 -372,4 -462,57 -89,53 10,185 -177,204 -195,20 -131,0 -95,101 8,26 40,72 71,40 24,-25 42,-114 93,-106 37,6 30,149 89,115 74,-41 98,-190 138,-190 69,-1 16,98 47,118 64,41 100,-13 113,-27 65,-67 104,71 177,30 66,-37 -123,-116 -55,-158 53,-33 127,155 193,135 29,-9 -8,-115 40,-254 70,-205 223,-225 149,-128 -34,44 -100,99 -91,161 2,25 91,-16 47,72 -15,30 -112,275 -31,206 34,-30 75,-187 136,-158 41,20 -42,124 9,97 34,-17 96,-120 141,-101 51,19 -49,120 3,141 50,21 128,-120 172,-80 35,30 -70,132 -34,146 13,5 63,-40 98,-48 77,-20 71,-76 151,-8 81,69 94,-6 194,86 13,12 61,71 85,53 44,-31 -107,-87 -57,-123 44,-29 215,50 230,26 22,-37 -299,-95 -237,-162 42,-48 163,84 181,29 16,-48 45,-26 68,-71 43,-82 248,91 294,74 66,-24 -216,-101 -123,-152 45,-25 179,93 192,71 15,-25 -234,-200 -259,-225 -32,-34 -28,-120 120,1 1,2 123,105 129,91 13,-34 -239,-324 -257,-355 -25,-44 18,-106 95,2 14,21 172,233 190,233 20,0 -17,-183 -15,-206 5,-60 68,-83 70,30 0,6 44,314 70,248 7,-19 33,-141 75,-106 39,34 -41,160 1,223 14,20 59,-131 106,-79 36,38 -53,97 -20,137 15,17 111,171 125,89 17,-95 127,20 177,21 54,1 36,-99 137,-18 90,70 91,-49 163,-54 65,-6 30,103 133,67 136,-48 58,11 177,47 110,35 64,-39 37,-180 -8,-38 -46,-133 0,-148 77,-27 66,297 109,204 67,-139 88,6 122,57 17,25 107,79 104,10 -5,-94 -2,-40 3,-126 10,-162 30,-278 -54,-425 -44,-79 -54,-201 27,-132 113,100 58,112 136,-85 25,-65 27,-70 -51,-91 -98,-26 11,-138 99,-129 72,6 73,-146 160,-119 91,27 -23,129 -17,169 9,51 79,81 49,141 -36,70 -82,-43 -127,24 -64,93 -82,10 -130,306 -5,33 -26,167 37,108 34,-31 96,-99 147,-70 69,37 -36,150 -73,182 -99,82 -149,133 -135,258 9,67 133,-171 198,-150 60,18 -25,111 18,140 79,53 53,46 195,-82 82,-74 142,-172 166,-75 0,0 10,231 85,111 25,-39 19,-156 94,-119 44,21 65,36 124,38 228,6 -51,-173 7,-228 43,-41 213,159 260,98 41,-55 7,-236 -83,-156 -64,56 -112,-6 18,-71 112,-57 228,168 273,145 37,-19 -75,-298 41,-292 33,2 77,88 78,13 0,-69 -12,-163 28,-221 62,-92 108,139 124,46 50,-286 118,-188 -172,-299 -294,-112 -508,3 -658,10 -137,5 -347,-53 -470,-111 -78,-37 -245,-139 -338,-123zm-11531 564c71,81 151,125 132,168 -56,119 135,173 24,201 -115,29 -21,72 -51,109 -34,39 -136,-13 -109,111 13,64 25,102 25,169 1,224 68,133 225,258 87,68 234,84 152,107 -168,47 -59,101 -83,159 -43,105 193,151 95,189 -56,22 -192,58 -133,144 20,29 43,45 47,82 5,61 68,87 107,127 21,22 37,84 81,68 49,-18 -121,-165 -132,-181 -12,-23 6,-45 -11,-66 -35,-46 -107,-77 14,-117 81,-27 192,-49 65,-142 -144,-106 -50,-57 -88,-159 -35,-90 212,-46 173,-123 -19,-37 -167,-54 -288,-148 -129,-100 -175,-1 -178,-216 -3,-139 -81,-217 48,-203 130,15 22,-77 46,-110 22,-34 127,18 130,-41 3,-55 -144,-135 -116,-181 32,-51 80,-10 -48,-137 -217,-212 -164,-286 -203,-319 -77,-66 40,207 76,251zm6553 684c-271,8 -713,310 -1040,411 -401,124 -360,156 -694,304 -96,42 -180,82 -283,109 -146,38 -47,99 -21,108 24,6 47,-17 69,-15 48,2 90,56 135,7 16,-18 -64,-107 -2,-108 58,-1 68,164 138,50 64,-104 90,68 107,-30 20,-111 152,-1 238,-90 77,-79 118,31 155,-31 49,-81 188,41 139,-75 -27,-63 36,-90 130,-45 188,92 64,-119 211,-8 78,60 66,-25 128,-34 35,-5 20,-24 -3,-29 -32,-8 -100,-2 -99,-51 2,-108 370,57 409,32 69,-46 -69,-140 2,-167 48,-20 132,108 174,127 24,11 41,-39 71,-27 20,7 68,61 94,41 36,-28 -27,-86 -50,-101 -20,-13 -98,-32 -44,-68 47,-32 153,19 185,53 30,32 88,111 108,16 24,-122 68,9 122,-42 32,-32 82,59 108,24 26,-37 -154,-124 -80,-159 24,-12 74,41 130,66 69,30 125,95 173,60 87,-59 -100,-79 -137,-162 -18,-44 42,-37 78,-21 23,8 124,78 137,48 26,-58 -95,-121 -133,-127 -74,-13 -153,1 -227,-8 -67,-8 -385,-60 -428,-58zm-1836 235c-135,20 -281,148 -164,225l256 123c132,56 93,-59 124,-89 39,-37 123,0 141,-69 10,-41 -37,-63 -65,-77 -75,-37 -204,-125 -292,-113zm3684 221c-67,16 35,261 -76,327 -68,40 -101,-17 -148,39 -68,83 -37,-92 -93,-92 -74,0 -109,191 -170,160 -35,-17 -31,-159 -114,-234 -57,-53 -86,13 -41,122 46,108 -75,-44 -164,12 -71,44 109,95 -58,128 -269,52 -118,78 -169,115 -118,87 -233,179 -379,218 -18,5 -121,14 -98,59 62,125 908,-158 1062,-89 284,127 634,-254 935,-243 59,3 84,49 19,73 -64,23 -390,65 -334,184 50,107 223,32 300,8 293,-86 439,-118 748,-124 93,-2 348,22 303,-138 -23,-80 -24,-66 91,-103 70,-24 403,-69 370,-150 -25,-61 -250,-23 -429,-75 -35,-10 -85,50 -76,-18 23,-161 -108,13 -112,16 -46,42 -18,-138 -87,-118 -58,17 28,188 -69,188 -74,0 -140,0 -212,25 -109,38 23,-142 -135,-67 -88,43 66,-100 -12,-106 -115,-7 -242,278 -279,130 -16,-64 40,-291 -95,-110 -183,244 -183,108 -235,107 -51,-1 -27,-39 -22,-85 7,-75 -48,-57 -85,-9 -27,34 -103,173 -93,46 2,-27 18,-210 -43,-196zm-6116 79c-67,16 -307,211 -380,258 -307,194 -654,388 -1002,498 -41,13 -180,50 -213,64 -95,40 167,197 234,168 62,-25 33,-171 166,-25 88,97 131,-10 218,-113 54,-63 89,-48 83,20 -4,34 -34,174 51,95 102,-96 47,98 159,-29 35,-41 76,-29 82,24 10,100 52,32 102,24 101,-15 93,44 213,-25 137,-80 141,61 227,40 20,-5 15,-56 53,-75 55,-28 40,-96 110,-58 77,42 100,33 184,5 47,-16 -2,-125 99,-65 98,60 70,-50 143,10 65,53 63,-84 152,-2 85,78 99,-88 300,-64 86,12 -24,-123 45,-146 68,-22 52,128 132,71 85,-61 88,32 133,-34 37,-54 81,-145 147,-167 74,-26 7,114 15,129 6,11 96,14 105,13 45,-1 63,-74 102,-88 61,-22 90,49 104,-68 6,-52 59,-63 85,-19 69,118 65,-16 137,24 35,19 94,20 130,0 22,-13 -8,-120 -32,-121 -17,-1 -166,38 -254,42 -405,23 -484,60 -909,-27 -425,-87 -387,-145 -750,-299 -47,-21 -117,-72 -171,-60zm-2177 1295c-114,-14 15,90 -81,96 -59,4 -1,80 37,223 15,57 28,104 35,164 12,95 109,26 303,41 105,8 -34,97 116,85 49,-5 170,11 194,-44 39,-86 -248,-69 -176,-200 44,-82 166,-67 242,-72 216,-14 422,-14 638,-35 127,-12 163,-94 23,-87 -143,9 -601,76 -706,-23 -74,-69 65,-150 -59,-158 -185,-12 -382,33 -566,10z"/>
 </g>
</svg>
