<?xml version="1.0" encoding="UTF-8" standalone="no"?>
<!-- Generator: Adobe Illustrator 16.0.0, SVG Export Plug-In . SVG Version: 6.00 Build 0)  -->

<svg
   xmlns:dc="http://purl.org/dc/elements/1.1/"
   xmlns:cc="http://creativecommons.org/ns#"
   xmlns:rdf="http://www.w3.org/1999/02/22-rdf-syntax-ns#"
   xmlns:svg="http://www.w3.org/2000/svg"
   xmlns="http://www.w3.org/2000/svg"
   xmlns:sodipodi="http://sodipodi.sourceforge.net/DTD/sodipodi-0.dtd"
   xmlns:inkscape="http://www.inkscape.org/namespaces/inkscape"
   version="1.1"
   id="Layer_1"
   x="0px"
   y="0px"
   width="26"
   height="26"
   viewBox="0 0 26 26"
   enable-background="new 0 0 512 512"
   xml:space="preserve"
   inkscape:version="0.48.5 r10040"
   sodipodi:docname="o.svg"><metadata
     id="metadata3072"><rdf:RDF><cc:Work
         rdf:about=""><dc:format>image/svg+xml</dc:format><dc:type
           rdf:resource="http://purl.org/dc/dcmitype/StillImage" /></cc:Work></rdf:RDF></metadata><defs
     id="defs3070" /><sodipodi:namedview
     pagecolor="#ffffff"
     bordercolor="#666666"
     borderopacity="1"
     objecttolerance="10"
     gridtolerance="10"
     guidetolerance="10"
     inkscape:pageopacity="0"
     inkscape:pageshadow="2"
     inkscape:window-width="1920"
     inkscape:window-height="1156"
     id="namedview3068"
     showgrid="false"
     inkscape:zoom="20.85965"
     inkscape:cx="21.244731"
     inkscape:cy="8.2098613"
     inkscape:window-x="0"
     inkscape:window-y="29"
     inkscape:window-maximized="1"
     inkscape:current-layer="Layer_1" /><path
     d="m 21.052845,17.899803 h -1.61945 c -1.788682,0 -3.238899,-1.450218 -3.238899,-3.238899 v -1.040649 c 0.716404,-0.851627 1.230428,-1.859027 1.549864,-2.92341 0.03319,-0.179506 0.20562,-0.268069 0.321055,-0.391401 C 18.685361,9.6854986 18.807123,8.639335 18.34219,7.8944377 18.27893,7.7813805 18.165062,7.683302 18.171388,7.5433212 c 0,-0.9497058 0.0048,-1.9009807 -0.0016,-2.8498769 C 18.144516,3.5476331 17.817134,2.3559713 17.013734,1.5075316 16.365297,0.82194765 15.474954,0.41394752 14.556068,0.23914824 13.395227,0.01773916 12.180639,0.02882223 11.030932,0.32138595 10.034565,0.57285608 9.098321,1.1564146 8.519519,2.0215044 8.007115,2.7734857 7.782518,3.6868046 7.7445622,4.5867124 c -0.01422,0.9663054 -0.00319,1.9349386 -0.00633,2.903623 0.022166,0.1937263 -0.1423598,0.3250029 -0.2166519,0.485531 -0.4380612,0.7946939 -0.2451442,1.877246 0.4586585,2.4552876 0.1786962,0.123382 0.2119452,0.347929 0.2767742,0.541655 0.306835,0.956792 0.816051,1.841669 1.459731,2.612628 v 1.075416 c 0,1.788682 -1.450217,3.238899 -3.238899,3.238899 H 4.8583488 c 0,0 -2.9352524,0.809725 -4.8583488,4.858348 v 1.619451 C 0,25.272701 0.7243494,25.997 1.6194496,25.997 H 24.291743 c 0.895151,0 1.619451,-0.72435 1.619451,-1.619449 V 22.7581 c -1.923097,-4.048573 -4.858349,-4.858297 -4.858349,-4.858297 z"
     id="path3066"
     inkscape:connector-curvature="0" /></svg>