<?xml version="1.0" encoding="UTF-8" standalone="no"?>
<!-- Generator: Adobe Illustrator 15.0.0, SVG Export Plug-In . SVG Version: 6.00 Build 0)  -->

<svg
   xmlns:dc="http://purl.org/dc/elements/1.1/"
   xmlns:cc="http://creativecommons.org/ns#"
   xmlns:rdf="http://www.w3.org/1999/02/22-rdf-syntax-ns#"
   xmlns:svg="http://www.w3.org/2000/svg"
   xmlns="http://www.w3.org/2000/svg"
   xmlns:sodipodi="http://sodipodi.sourceforge.net/DTD/sodipodi-0.dtd"
   xmlns:inkscape="http://www.inkscape.org/namespaces/inkscape"
   version="1.1"
   id="Layer_1"
   x="0px"
   y="0px"
   width="26px"
   height="26px"
   viewBox="0 0 26 26"
   enable-background="new 0 0 26 26"
   xml:space="preserve"
   inkscape:version="0.48.5 r10040"
   sodipodi:docname="pravni-minimum-ulice.svg"><metadata
     id="metadata3111"><rdf:RDF><cc:Work
         rdf:about=""><dc:format>image/svg+xml</dc:format><dc:type
           rdf:resource="http://purl.org/dc/dcmitype/StillImage" /></cc:Work></rdf:RDF></metadata><defs
     id="defs3109" /><sodipodi:namedview
     pagecolor="#ffffff"
     bordercolor="#666666"
     borderopacity="1"
     objecttolerance="10"
     gridtolerance="10"
     guidetolerance="10"
     inkscape:pageopacity="0"
     inkscape:pageshadow="2"
     inkscape:window-width="1920"
     inkscape:window-height="1156"
     id="namedview3107"
     showgrid="false"
     inkscape:zoom="9.0769231"
     inkscape:cx="59.137109"
     inkscape:cy="-5.4831818"
     inkscape:window-x="0"
     inkscape:window-y="29"
     inkscape:window-maximized="1"
     inkscape:current-layer="Layer_1" /><rect
     width="22.854967"
     height="22.854967"
     id="rect3097"
     x="1.5725167"
     y="0"
     style="fill:none" /><rect
     width="22.854967"
     height="22.854967"
     id="rect3099"
     x="1.5725167"
     y="0"
     style="fill:none" /><path
     style="font-size:7.41307116px;font-style:normal;font-weight:normal;line-height:125%;letter-spacing:0px;word-spacing:0px;fill:#000000;fill-opacity:1;stroke:none;font-family:Sans"
     d="M 11.96875 0.375 L 11.53125 1.21875 L 12.625 1.21875 L 13.375 0.375 L 11.96875 0.375 z M 23 0.375 L 22.53125 1.21875 L 23.65625 1.21875 L 24.40625 0.375 L 23 0.375 z M 2.125 1.65625 L 2.125 6.875 L 3.59375 6.875 L 3.59375 5 L 4.15625 5 C 4.6455122 5 5.1664121 4.9702185 5.5 4.5625 C 5.6927397 4.325282 5.75 4.085632 5.75 3.5 C 5.75 2.803172 5.7404135 2.4066964 5.5625 2.125 C 5.2956297 1.6950423 4.842023 1.65625 4.375 1.65625 L 2.125 1.65625 z M 6.15625 1.65625 L 6.15625 6.875 L 7.625 6.875 L 7.625 4.71875 L 7.78125 4.71875 L 8.46875 6.875 L 10 6.875 L 9.15625 4.53125 C 9.4082942 4.412641 9.5598802 4.2774788 9.65625 4.0625 C 9.7600329 3.8401081 9.8125 3.6126645 9.8125 3.09375 C 9.8125 2.863945 9.8034892 2.6943374 9.78125 2.53125 C 9.7441847 2.2717928 9.5751527 2.0470982 9.375 1.90625 C 9.1081297 1.7209234 8.7741541 1.65625 8.0625 1.65625 L 6.15625 1.65625 z M 11.25 1.65625 L 10.03125 6.875 L 11.5 6.875 L 11.6875 5.6875 L 12.59375 5.6875 L 12.75 6.875 L 14.21875 6.875 L 13.03125 1.65625 L 11.25 1.65625 z M 13.96875 1.65625 L 14.9375 6.875 L 16.96875 6.875 L 17.96875 1.65625 L 16.5 1.65625 L 15.96875 5.65625 L 15.40625 1.65625 L 13.96875 1.65625 z M 18.25 1.65625 L 18.25 6.875 L 19.5 6.875 L 19.5 3.8125 L 20.5 6.875 L 21.875 6.875 L 21.875 1.65625 L 20.65625 1.65625 L 20.65625 4.78125 L 19.625 1.65625 L 18.25 1.65625 z M 22.4375 1.65625 L 22.4375 6.875 L 23.90625 6.875 L 23.90625 1.65625 L 22.4375 1.65625 z M 3.59375 2.65625 L 3.96875 2.65625 C 4.2430334 2.65625 4.34375 2.7569666 4.34375 3.03125 L 4.34375 3.5625 C 4.34375 3.8590225 4.2875117 4 3.96875 4 L 3.59375 4 L 3.59375 2.65625 z M 12.15625 2.65625 L 12.46875 4.75 L 11.8125 4.75 L 12.15625 2.65625 z M 7.625 2.6875 L 8.03125 2.6875 C 8.2758811 2.6875 8.375 2.762782 8.375 3 L 8.375 3.3125 C 8.375 3.6460879 8.2816964 3.71875 8 3.71875 L 7.625 3.71875 L 7.625 2.6875 z "
     id="text3113" /><path
     style="font-size:12.66641998px;font-style:normal;font-weight:normal;line-height:125%;letter-spacing:0px;word-spacing:0px;fill:#000000;fill-opacity:1;stroke:none;font-family:Sans"
     d="M 2.125 7.4375 L 2.125 16.6875 L 4.15625 16.6875 L 4.15625 10.46875 L 5.5 16.6875 L 7.0625 16.6875 L 8.40625 10.34375 L 8.40625 16.6875 L 10.4375 16.6875 L 10.4375 7.4375 L 7.375 7.4375 L 6.3125 13.53125 L 5.1875 7.4375 L 2.125 7.4375 z M 11.3125 7.4375 L 11.3125 16.6875 L 13.75 16.6875 L 13.75 7.4375 L 11.3125 7.4375 z M 14.65625 7.4375 L 14.65625 16.6875 L 16.6875 16.6875 L 16.6875 11.25 L 18.34375 16.6875 L 20.625 16.6875 L 20.625 7.4375 L 18.59375 7.4375 L 18.59375 12.96875 L 16.875 7.4375 L 14.65625 7.4375 z M 21.5 7.4375 L 21.5 16.6875 L 23.96875 16.6875 L 23.96875 7.4375 L 21.5 7.4375 z "
     id="text3117" /><path
     style="font-size:11.35739803px;font-style:normal;font-weight:normal;line-height:125%;letter-spacing:0px;word-spacing:0px;fill:#000000;fill-opacity:1;stroke:none;font-family:Sans"
     d="M 2.125 17.21875 L 2.125 25.5 L 3.9375 25.5 L 3.9375 19.90625 L 5.15625 25.5 L 6.5625 25.5 L 7.75 19.8125 L 7.75 25.5 L 9.5625 25.5 L 9.5625 17.21875 L 6.84375 17.21875 L 5.875 22.6875 L 4.875 17.21875 L 2.125 17.21875 z M 10.3125 17.21875 L 10.3125 23.40625 C 10.3125 24.029155 10.357323 24.28043 10.5 24.5625 C 10.949982 25.49098 12.153236 25.625 13.03125 25.625 C 13.997065 25.625 14.553369 25.453808 14.9375 25.21875 C 15.738687 24.725128 15.78125 24.107963 15.78125 23.25 L 15.78125 17.21875 L 13.59375 17.21875 L 13.59375 23.3125 C 13.59375 23.5123 13.590984 23.96875 13.03125 23.96875 C 12.471516 23.96875 12.5 23.500547 12.5 23.3125 L 12.5 17.21875 L 10.3125 17.21875 z M 16.53125 17.21875 L 16.53125 25.5 L 18.34375 25.5 L 18.34375 19.90625 L 19.5625 25.5 L 20.96875 25.5 L 22.15625 19.8125 L 22.15625 25.5 L 23.96875 25.5 L 23.96875 17.21875 L 21.25 17.21875 L 20.28125 22.6875 L 19.28125 17.21875 L 16.53125 17.21875 z "
     id="text3193" /></svg>