<?xml version="1.0" encoding="UTF-8" standalone="no"?>
<svg
   xmlns:dc="http://purl.org/dc/elements/1.1/"
   xmlns:cc="http://creativecommons.org/ns#"
   xmlns:rdf="http://www.w3.org/1999/02/22-rdf-syntax-ns#"
   xmlns:svg="http://www.w3.org/2000/svg"
   xmlns="http://www.w3.org/2000/svg"
   xml:space="preserve"
   style="enable-background:new 0 0 61.012 61.012;"
   viewBox="0 0 61.012 61.012"
   y="0px"
   x="0px"
   id="Capa_1"
   version="1.1"><metadata
     id="metadata3466"><rdf:RDF><cc:Work
         rdf:about=""><dc:format>image/svg+xml</dc:format><dc:type
           rdf:resource="http://purl.org/dc/dcmitype/StillImage" /><dc:title></dc:title></cc:Work></rdf:RDF></metadata><defs
     id="defs3464" /><g
     id="g3422"><g
       id="g3424"><path
         id="path3426"
         d="M33.452,12.046c-0.754-0.218-1.046,3.422-2.992,3.196c-1.946-0.226-2.184-3.341-2.9-3.133    c-7.788,2.261-11.192,8.078-10.922,16.748c0.039,1.227,1.045,2.195,2.265,2.195c0.022,0,0.049,0,0.071,0    c1.25-0.041,2.233-1.085,2.194-2.336c-0.099-3.169,0.573-5.858,1.936-7.981c-0.002,0.116-0.013,0.229-0.013,0.346v9.32h4.452    v1.971h-4.452V58.17c0,1.568,1.27,2.842,2.838,2.842c1.568,0,2.839-1.272,2.839-2.842c0,0-0.595-22.152,1.532-22.17    c2.126-0.02,1.777,22.17,1.777,22.17c0,1.568,1.271,2.842,2.838,2.842c1.566,0,2.838-1.272,2.838-2.842l0.037-25.799h-0.764    l0.6,2.684l-1.502,0.334l-0.676-3.018h-2.775V30.4h0.752l-0.903-0.226l-0.548-2.458l4.25,1.058l0.029,0.137l0.332,1.488h1.207    l0.015-9.32c0-0.209-0.015-0.415-0.027-0.621c1.457,2.154,2.17,4.92,2.065,8.193c-0.037,1.251,0.945,2.297,2.195,2.336    c0.022,0,0.049,0.001,0.071,0.001c1.22,0,2.226-0.969,2.263-2.195C44.644,20.125,41.239,14.308,33.452,12.046z"
         style="fill:#010002;" /><path
         id="path3428"
         d="M31.082,11.047c3.073-0.312,5.311-3.055,5-6.126L24.957,6.048    C25.269,9.12,28.01,11.359,31.082,11.047z"
         style="fill:#010002;" /><polygon
         id="polygon3430"
         points="36.415,3.841 36.415,0 23.187,0 25.321,3.841 22.207,5.174   "
         style="fill:#010002;" /></g></g></svg>