<?xml version="1.0" encoding="UTF-8" standalone="no"?>
<!-- Generator: Adobe Illustrator 15.0.0, SVG Export Plug-In . SVG Version: 6.00 Build 0)  -->

<svg
   xmlns:dc="http://purl.org/dc/elements/1.1/"
   xmlns:cc="http://creativecommons.org/ns#"
   xmlns:rdf="http://www.w3.org/1999/02/22-rdf-syntax-ns#"
   xmlns:svg="http://www.w3.org/2000/svg"
   xmlns="http://www.w3.org/2000/svg"
   xmlns:sodipodi="http://sodipodi.sourceforge.net/DTD/sodipodi-0.dtd"
   xmlns:inkscape="http://www.inkscape.org/namespaces/inkscape"
   version="1.1"
   id="Layer_1"
   x="0px"
   y="0px"
   width="26px"
   height="26px"
   viewBox="0 0 26 26"
   enable-background="new 0 0 26 26"
   xml:space="preserve"
   inkscape:version="0.48.5 r10040"
   sodipodi:docname="zachranari.svg"><metadata
     id="metadata3111"><rdf:RDF><cc:Work
         rdf:about=""><dc:format>image/svg+xml</dc:format><dc:type
           rdf:resource="http://purl.org/dc/dcmitype/StillImage" /><dc:title></dc:title></cc:Work></rdf:RDF></metadata><defs
     id="defs3109"><clipPath
       clipPathUnits="userSpaceOnUse"
       id="clipPath28"><path
         inkscape:connector-curvature="0"
         d="m 0,141.732 155.906,0 L 155.906,0 0,0 0,141.732 z"
         id="path30" /></clipPath></defs><sodipodi:namedview
     pagecolor="#ffffff"
     bordercolor="#666666"
     borderopacity="1"
     objecttolerance="10"
     gridtolerance="10"
     guidetolerance="10"
     inkscape:pageopacity="0"
     inkscape:pageshadow="2"
     inkscape:window-width="1920"
     inkscape:window-height="1156"
     id="namedview3107"
     showgrid="false"
     inkscape:zoom="12.836708"
     inkscape:cx="-10.828262"
     inkscape:cy="17.203046"
     inkscape:window-x="0"
     inkscape:window-y="29"
     inkscape:window-maximized="1"
     inkscape:current-layer="Layer_1" /><g
     id="g12"
     transform="matrix(0.14515422,0,0,-0.14515422,23.112413,10.483806)"
     style="fill:#000000"><path
       inkscape:connector-curvature="0"
       d="m 0,0 -16.745,30.227 -33.689,-18.664 0,34.443 -37.51,0 0,-34.443 -33.689,18.664 -16.746,-30.224 33.542,-18.583 -33.542,-18.582 16.746,-30.223 33.689,18.662 0,-34.441 37.51,0 0,34.443 33.689,-18.664 L 0,-37.158 -33.536,-18.58 0,0 z"
       style="fill:#000000;fill-opacity:1;fill-rule:nonzero;stroke:none"
       id="path14" /></g><g
     id="g16"
     transform="matrix(0.14515422,0,0,-0.14515422,10.479599,22.290343)"><path
       inkscape:connector-curvature="0"
       d="m 0,0 35.684,0 0,35.08 34.244,-18.973 15.861,28.629 -34.179,18.935 34.179,18.936 -15.86,28.63 -34.245,-18.973 0,35.08 L 0,127.344 0,92.265 -34.246,111.237 -50.107,82.61 -15.923,63.671 -50.107,44.732 -34.246,16.107 0,35.08 0,0 z m -1.827,-1.826 0,33.806 -33.133,-18.355 -17.63,31.82 32.899,18.226 -32.899,18.227 17.631,31.821 33.132,-18.355 0,33.806 39.337,0 0,-33.807 33.131,18.356 L 88.271,81.895 55.378,63.671 88.271,45.447 70.641,13.625 37.51,31.98 l 0,-33.806 -39.337,0 z"
       style="fill:#ffffff;fill-opacity:1;fill-rule:nonzero;stroke:none"
       id="path18" /></g><g
     id="g20"
     transform="matrix(0.14515422,0,0,-0.14515422,10.479599,22.290343)"
     style="fill:#000000"><path
       inkscape:connector-curvature="0"
       d="m 0,0 0,-0.457 36.141,0 0,34.762 L 70.105,15.486 86.41,44.914 52.552,63.671 86.41,82.429 70.106,111.858 36.14,93.039 l 0,34.761 -36.597,0 0,-34.76 -33.967,18.818 -16.304,-29.426 33.864,-18.761 -33.864,-18.761 16.304,-29.424 33.967,18.819 0,-34.762 0.457,0 0,0.457 0.456,0 0,35.854 -34.524,-19.127 -15.418,27.828 34.506,19.116 -34.506,19.117 15.418,27.829 34.524,-19.127 0,35.397 34.771,0 0,-35.398 34.524,19.128 L 85.169,82.786 50.668,63.671 85.169,44.559 69.75,16.727 35.228,35.854 35.228,0.457 0,0.457 0,0 0.456,0 0,0 z m -1.827,-1.826 0.456,0 0,34.58 -33.41,-18.508 -17.188,31.022 33.22,18.403 -33.22,18.405 17.188,31.023 33.41,-18.51 0,34.125 38.424,0 0,-34.126 33.41,18.511 L 87.651,82.073 54.436,63.671 87.651,45.27 70.463,14.244 l -33.41,18.512 0,-34.125 -38.88,0 0,-0.457 0.456,0 -0.456,0 0,-0.457 39.793,0 0,33.49 L 70.819,13.004 88.893,45.627 56.319,63.671 88.893,81.717 70.819,114.34 37.966,96.138 l 0,33.489 -40.25,0 0,-33.488 -32.853,18.201 -18.073,-32.62 32.576,-18.049 -32.576,-18.048 18.072,-32.619 32.854,18.201 0,-33.488 0.457,0 0,0.457 z"
       style="fill:#000000;fill-opacity:1;fill-rule:nonzero;stroke:none"
       id="path22" /></g><g
     transform="matrix(0.21127825,0,0,-0.21127825,-3.438578,26.951833)"
     id="g24"
     style="stroke:none"><g
       id="g26"
       clip-path="url(#clipPath28)"
       style="stroke:none"><g
         id="g32"
         transform="matrix(0.8144394,0,0,0.8144394,75.663419,101.98894)"
         style="stroke:none"><path
           d="m 0,0 c 0.326,-2.604 3.25,-87.875 3.25,-90.75 0,-2.875 1.875,-7.125 2.125,0.5 C 5.625,-82.625 7.875,0.25 8,3 8.125,5.75 6.125,6 3.75,4.625 1.375,3.25 -0.25,2 0,0"
           style="fill:#ffffff;fill-opacity:1;fill-rule:nonzero;stroke:none"
           id="path34"
           inkscape:connector-curvature="0" /></g><g
         id="g36"
         transform="matrix(0.8144394,0,0,0.8144394,76.108836,78.981025)"
         style="stroke:none"><path
           d="M 0,0 C 0,2.743 -0.125,4.203 -0.125,5.719 -1.5,7.094 -5.223,11.007 -5.172,15 c 0.061,4.791 2.75,5.375 4.5,5.25 1.75,-0.125 4.125,-2 6.5,-0.25 1.174,0.865 -1.625,4.875 -5.25,5.625 -3.625,0.75 -10,-3 -10.25,-9.625 C -9.922,9.375 -4.375,2.5 0,0"
           style="fill:#ffffff;fill-opacity:1;fill-rule:nonzero;stroke:none"
           id="path38"
           inkscape:connector-curvature="0" /></g><g
         id="g40"
         transform="matrix(0.8144394,0,0,0.8144394,76.108836,78.981025)"
         style="fill:#000000;fill-opacity:1;stroke:none"><path
           d="m 0,0 0.5,0 c 0,2.759 -0.125,4.233 -0.125,5.719 l 0,0.207 -0.146,0.146 c -0.674,0.673 -1.913,1.961 -2.974,3.55 -1.064,1.589 -1.932,3.473 -1.927,5.297 l 0,0.074 c 0.03,2.138 0.59,3.297 1.265,3.94 0.674,0.643 1.539,0.831 2.33,0.832 0.126,0 0.25,-0.005 0.369,-0.014 0.491,-0.031 1.144,-0.261 1.873,-0.504 0.731,-0.24 1.551,-0.488 2.439,-0.49 0.815,-0.003 1.69,0.225 2.521,0.841 0.338,0.244 0.481,0.653 0.475,1.02 -0.005,0.5 -0.197,1.009 -0.5,1.545 -0.919,1.586 -2.943,3.426 -5.421,3.952 -0.344,0.071 -0.703,0.105 -1.075,0.105 -2.005,-0.006 -4.354,-0.971 -6.271,-2.717 -1.914,-1.746 -3.386,-4.305 -3.504,-7.484 -0.006,-0.151 -0.009,-0.302 -0.009,-0.454 0.003,-3.385 1.398,-6.746 3.322,-9.58 1.928,-2.834 4.384,-5.144 6.61,-6.419 L 0.5,-0.862 0.5,0 0,0 0.248,0.434 c -2.053,1.17 -4.437,3.398 -6.279,6.113 -1.847,2.716 -3.152,5.915 -3.149,9.018 0,0.139 0.003,0.278 0.008,0.416 0.109,2.885 1.433,5.186 3.179,6.784 1.742,1.598 3.916,2.46 5.597,2.455 0.311,0 0.603,-0.029 0.873,-0.085 1.401,-0.287 2.712,-1.129 3.655,-2.069 0.471,-0.468 0.847,-0.959 1.1,-1.4 C 5.487,21.228 5.604,20.833 5.6,20.618 5.593,20.45 5.563,20.431 5.531,20.402 4.866,19.916 4.245,19.76 3.604,19.757 2.908,19.756 2.188,19.961 1.478,20.196 c -0.713,0.232 -1.406,0.498 -2.114,0.553 -0.141,0.01 -0.289,0.016 -0.441,0.016 -0.939,10e-4 -2.094,-0.227 -3.02,-1.108 -0.926,-0.881 -1.548,-2.354 -1.575,-4.651 l 0,-0.087 c 0.004,-2.14 0.977,-4.174 2.095,-5.853 1.121,-1.677 2.406,-3.008 3.098,-3.701 l 0.354,0.354 -0.5,0 C -0.625,4.173 -0.5,2.728 -0.5,0 L 0,0 0.248,0.434 0,0 z"
           style="fill:#000000;fill-opacity:1;fill-rule:nonzero;stroke:none"
           id="path42"
           inkscape:connector-curvature="0" /></g><g
         id="g44"
         transform="matrix(0.8144394,0,0,0.8144394,81.924422,80.915319)"
         style="stroke:none"><path
           d="m 0,0 c 0,0 -0.063,-2.703 -0.125,-5.016 0.625,-0.375 2.766,-2.318 0.718,-4.56 -1.011,-1.107 -4.417,-3.052 -7.704,-5.603 -2.493,-1.934 -5.463,-4.371 -5.514,-7.79 -0.094,-6.312 3.016,-8.703 6.5,-9.562 0,0.937 -0.094,1.25 -0.094,5.312 -2.463,0.223 -2.665,4.204 -1.592,6.087 1.688,2.964 13.516,7.573 13.535,13.048 C 5.74,-3.195 2.25,-1.375 0,0"
           style="fill:#ffffff;fill-opacity:1;fill-rule:nonzero;stroke:none"
           id="path46"
           inkscape:connector-curvature="0" /></g><g
         id="g48"
         transform="matrix(0.8144394,0,0,0.8144394,81.924422,80.915319)"
         style="fill:#000000;fill-opacity:1;stroke:none"><path
           d="m 0,0 -0.5,0.012 c 0,-0.006 -0.063,-2.703 -0.125,-5.014 l -0.008,-0.292 0.251,-0.15 c 0.149,-0.087 0.519,-0.379 0.813,-0.77 0.3,-0.395 0.53,-0.883 0.529,-1.402 -0.003,-0.467 -0.169,-0.997 -0.736,-1.623 -0.422,-0.47 -1.528,-1.248 -2.911,-2.183 -1.386,-0.943 -3.07,-2.073 -4.73,-3.361 -1.251,-0.972 -2.646,-2.083 -3.752,-3.415 -1.104,-1.328 -1.929,-2.906 -1.956,-4.763 -10e-4,-0.096 -0.002,-0.19 -0.002,-0.284 -0.002,-3.134 0.793,-5.376 2.078,-6.934 1.283,-1.557 3.021,-2.399 4.804,-2.838 l 0.62,-0.153 0,0.639 c -0.001,0.981 -0.094,1.252 -0.094,5.312 l 0,0.457 -0.455,0.041 c -0.6,0.061 -0.988,0.367 -1.297,0.899 -0.301,0.53 -0.459,1.282 -0.457,2.049 -0.003,0.893 0.213,1.806 0.552,2.394 0.32,0.587 1.343,1.441 2.674,2.356 2,1.388 4.685,2.999 6.896,4.798 1.106,0.902 2.095,1.851 2.825,2.866 0.726,1.013 1.2,2.108 1.205,3.274 l 0,0.036 c 0.005,2.552 -0.933,4.374 -2.155,5.674 -1.218,1.305 -2.7,2.122 -3.808,2.802 L -0.479,0.879 -0.5,0.012 0,0 -0.261,-0.427 c 1.136,-0.692 2.517,-1.468 3.599,-2.63 1.079,-1.164 1.88,-2.682 1.886,-4.992 l 0,-0.034 c 0,-1.179 -0.657,-2.393 -1.755,-3.596 -1.64,-1.803 -4.21,-3.518 -6.535,-5.048 -1.163,-0.766 -2.267,-1.489 -3.171,-2.169 -0.905,-0.687 -1.616,-1.312 -2.009,-1.989 -0.451,-0.799 -0.68,-1.842 -0.682,-2.888 0.001,-0.897 0.17,-1.798 0.585,-2.54 0.406,-0.739 1.124,-1.324 2.079,-1.404 l 0.045,0.498 -0.5,0 c 0,-4.064 0.095,-4.419 0.094,-5.312 l 0.5,0 0.12,0.485 c -1.65,0.408 -3.163,1.156 -4.272,2.503 -1.109,1.348 -1.848,3.325 -1.85,6.298 0,0.089 0.001,0.179 0.002,0.268 0.023,1.562 0.709,2.913 1.726,4.141 1.015,1.225 2.352,2.299 3.595,3.262 1.626,1.262 3.289,2.38 4.68,3.324 1.394,0.952 2.497,1.7 3.086,2.337 0.702,0.763 1.001,1.565 0.998,2.297 -0.002,0.816 -0.349,1.5 -0.732,2.006 -0.391,0.51 -0.813,0.851 -1.096,1.023 l -0.257,-0.429 0.5,-0.013 C 0.438,-2.715 0.5,-0.012 0.5,-0.012 L 0,0 -0.261,-0.427 0,0 z"
           style="fill:#000000;fill-opacity:1;fill-rule:nonzero;stroke:none"
           id="path50"
           inkscape:connector-curvature="0" /></g><g
         id="g52"
         transform="matrix(0.8144394,0,0,0.8144394,81.249985,56.596647)"
         style="stroke:none"><path
           d="m 0,0 c 0,0 -0.125,-3.521 -0.125,-4.75 1,-0.625 0.746,-2.426 -0.088,-3.563 -1.284,-1.75 -6.999,-4.566 -7.396,-10.078 -0.432,-5.996 3.234,-8.187 3.234,-8.187 0,0 0.016,1.287 0.016,6.187 0,6.708 7.745,7.856 7.875,14 C 3.601,-2.363 1.5,-0.625 0,0"
           style="fill:#ffffff;fill-opacity:1;fill-rule:nonzero;stroke:none"
           id="path54"
           inkscape:connector-curvature="0" /></g><g
         id="g56"
         transform="matrix(0.8144394,0,0,0.8144394,81.249985,56.596647)"
         style="fill:#000000;fill-opacity:1;stroke:none"><path
           d="m 0,0 -0.5,0.018 c 0,-0.004 -0.125,-3.517 -0.125,-4.768 l 0,-0.277 0.235,-0.147 c 0.135,-0.086 0.229,-0.199 0.302,-0.362 0.071,-0.163 0.113,-0.377 0.112,-0.621 0.004,-0.587 -0.247,-1.331 -0.64,-1.861 -0.254,-0.353 -0.837,-0.857 -1.557,-1.448 -1.081,-0.892 -2.475,-2.014 -3.649,-3.461 -1.172,-1.444 -2.129,-3.233 -2.286,-5.427 -0.025,-0.346 -0.037,-0.679 -0.037,-1.001 -0.001,-2.739 0.857,-4.659 1.728,-5.877 0.871,-1.222 1.744,-1.75 1.786,-1.775 l 0.745,-0.446 0.011,0.869 c 0,0.004 0.016,1.292 0.016,6.193 0.003,1.58 0.448,2.8 1.133,3.886 1.03,1.627 2.639,2.922 4.056,4.409 1.409,1.481 2.637,3.222 2.686,5.695 l 0.003,0.246 C 4.02,-4.138 3.478,-2.638 2.718,-1.57 1.959,-0.502 1,0.125 0.192,0.462 L -0.474,0.739 -0.5,0.018 0,0 -0.192,-0.462 C 0.471,-0.738 1.271,-1.258 1.902,-2.149 2.535,-3.042 3.017,-4.313 3.019,-6.155 L 3.016,-6.38 C 2.983,-7.81 2.522,-8.922 1.819,-9.942 c -1.052,-1.531 -2.681,-2.807 -4.091,-4.355 -1.407,-1.543 -2.593,-3.425 -2.587,-6.094 0,-2.449 -0.004,-3.996 -0.008,-4.929 -0.004,-0.933 -0.008,-1.251 -0.008,-1.252 l 0.5,-0.006 0.256,0.429 -0.001,0.001 c -0.054,0.034 -0.815,0.521 -1.554,1.598 -0.74,1.079 -1.469,2.743 -1.471,5.195 0,0.297 0.011,0.607 0.034,0.928 0.186,2.582 1.617,4.554 3.217,6.129 0.799,0.785 1.633,1.463 2.358,2.061 0.725,0.602 1.339,1.106 1.726,1.628 0.518,0.712 0.831,1.605 0.834,2.452 0,0.352 -0.056,0.701 -0.196,1.021 -0.139,0.32 -0.369,0.612 -0.688,0.81 l -0.265,-0.424 0.5,0 c 0,0.601 0.031,1.79 0.063,2.821 C 0.469,-0.896 0.5,-0.02 0.5,-0.018 L 0,0 -0.192,-0.462 0,0 z"
           style="fill:#000000;fill-opacity:1;fill-rule:nonzero;stroke:none"
           id="path58"
           inkscape:connector-curvature="0" /></g><g
         id="g60"
         transform="matrix(0.8144394,0,0,0.8144394,80.575466,32.647079)"
         style="stroke:none"><path
           d="m 0,0 c 0.078,-0.266 0,-2.156 -0.547,-2.969 -0.827,-1.228 -3.732,-2.612 -1.609,-2.515 3.094,0.14 4.065,3.495 4.14,4.625 C 2.109,1.016 1.797,2.156 0.078,3.469 0.078,3.469 -0.125,0.625 0,0"
           style="fill:#ffffff;fill-opacity:1;fill-rule:nonzero;stroke:none"
           id="path62"
           inkscape:connector-curvature="0" /></g><g
         id="g64"
         transform="matrix(0.8144394,0,0,0.8144394,80.575466,32.647079)"
         style="fill:#000000;fill-opacity:1;stroke:none"><path
           d="m 0,0 -0.479,-0.141 0.211,0.062 -0.216,-0.043 0.005,-0.019 0.211,0.062 -0.216,-0.043 0.001,-0.015 c 0.004,-0.035 0.009,-0.114 0.009,-0.214 0,-0.292 -0.033,-0.765 -0.116,-1.222 -0.079,-0.457 -0.223,-0.905 -0.372,-1.116 -0.23,-0.353 -0.799,-0.829 -1.313,-1.238 -0.259,-0.208 -0.503,-0.403 -0.703,-0.593 -0.1,-0.095 -0.189,-0.189 -0.269,-0.298 -0.074,-0.112 -0.164,-0.242 -0.17,-0.473 -0.004,-0.139 0.057,-0.308 0.156,-0.414 0.15,-0.163 0.305,-0.209 0.446,-0.243 0.142,-0.031 0.289,-0.04 0.463,-0.041 l 0.218,0.006 c 1.738,0.074 2.915,1.086 3.601,2.17 0.695,1.094 0.969,2.259 1.016,2.92 0.016,0.245 0.026,0.479 0.026,0.706 C 2.51,0.604 2.394,1.324 2.054,1.995 1.715,2.667 1.17,3.265 0.382,3.866 L -0.354,4.429 -0.421,3.504 C -0.421,3.498 -0.54,1.838 -0.54,0.744 -0.539,0.4 -0.533,0.13 -0.49,-0.099 L -0.485,-0.12 -0.479,-0.141 0,0 0.49,0.099 C 0.475,0.164 0.458,0.434 0.459,0.744 c 0,0.513 0.029,1.19 0.059,1.734 0.03,0.543 0.059,0.955 0.059,0.956 L 0.078,3.469 -0.226,3.071 C 0.489,2.525 0.91,2.041 1.161,1.545 1.41,1.048 1.508,0.514 1.509,-0.187 1.509,-0.387 1.501,-0.6 1.485,-0.826 1.458,-1.295 1.208,-2.372 0.625,-3.273 0.033,-4.183 -0.823,-4.919 -2.179,-4.985 l -0.173,-0.004 -0.198,0.01 -0.061,0.01 -0.023,-0.08 0.037,0.073 -0.014,0.007 -0.023,-0.08 0.037,0.073 -0.143,-0.279 0.255,0.179 -0.112,0.1 -0.143,-0.279 0.255,0.179 -0.307,-0.215 0.375,0 -0.068,0.215 -0.307,-0.215 0.375,0 -0.284,0 0.263,-0.113 0.021,0.113 -0.284,0 0.263,-0.113 -0.076,0.032 0.072,-0.041 0.004,0.009 -0.076,0.032 0.072,-0.041 c 0.002,0.013 0.122,0.151 0.295,0.297 0.261,0.227 0.64,0.517 1.013,0.831 0.372,0.317 0.74,0.652 1.002,1.037 0.285,0.433 0.427,0.968 0.526,1.497 0.095,0.528 0.131,1.041 0.131,1.4 0,0.095 -0.002,0.18 -0.007,0.256 -0.007,0.079 -0.011,0.14 -0.039,0.236 L 0,0 0.49,0.099 0,0 z"
           style="fill:#000000;fill-opacity:1;fill-rule:nonzero;stroke:none"
           id="path66"
           inkscape:connector-curvature="0" /></g><g
         id="g68"
         transform="matrix(0.8144394,0,0,0.8144394,77.95403,97.102302)"
         style="fill:#000000;fill-opacity:1;stroke:none"><path
           d="m 0,0 c 0,-0.276 -0.21,-0.5 -0.469,-0.5 -0.259,0 -0.469,0.224 -0.469,0.5 0,0.276 0.21,0.5 0.469,0.5 C -0.21,0.5 0,0.276 0,0"
           style="fill:#000000;fill-opacity:1;fill-rule:nonzero;stroke:none"
           id="path70"
           inkscape:connector-curvature="0" /></g></g></g></svg>